<svg width="120" height="21" viewBox="0 0 120 21" fill="none" xmlns="http://www.w3.org/2000/svg">
    <g clip-path="url(#clip0_7852_3156)">
        <path d="M67.156 3.88757L65.4702 7.80959H67.6032L69.289 3.88757H67.156Z" fill="#FFCD00"/>
        <path d="M71.0779 1.96106L69.3921 5.84867H71.5251L73.2109 1.96106H71.0779Z" fill="#FFCD00"/>
        <path d="M75.0344 0L73.3486 3.88761H75.4817L77.1674 0H75.0344Z" fill="#FFCD00"/>
        <path d="M12.9702 3.88757V20.4013H9.22018V13.8646H3.7844V20.4013H0V3.88757H3.75V10.4931H9.18578V3.88757H12.9702Z" fill="#0071CE"/>
        <path d="M17.2708 3.88757H21.0208V20.4013H17.2708V3.88757Z" fill="#0071CE"/>
        <path d="M24.4609 15.516H28.2453C28.2453 16.5825 29.3119 17.3738 30.5848 17.3738C31.8577 17.3738 32.7522 16.8234 32.7522 15.7568C32.7522 15.1032 32.4082 14.5183 30.9288 14.0367L28.9678 13.4518C25.321 12.4541 24.633 10.2523 24.633 8.66969C24.633 5.71097 27.1788 3.68115 30.4472 3.68115C33.7155 3.68115 36.0206 5.57335 36.0206 8.8073H32.2706C32.2706 7.80959 31.6857 6.9839 30.3784 6.9839C29.2086 6.9839 28.4518 7.70638 28.4518 8.60088C28.4518 8.94491 28.555 9.66739 30.0687 10.1146L31.7889 10.6307C34.1284 11.3532 36.5366 12.5573 36.5366 15.5848C36.5366 19.1284 33.4747 20.6422 30.4472 20.6422C26.9036 20.6422 24.4609 18.5779 24.4609 15.516Z" fill="#0071CE"/>
        <path d="M59.3118 20.4357L58.2453 11.0091L54.6329 18.5091H51.743L48.1306 11.0091L47.0297 20.4013H43.1765L45.2063 3.88757H48.3371L53.1536 14.2431L57.9013 3.88757H61.1008L63.1306 20.4013L59.3118 20.4357Z" fill="#0071CE"/>
        <path d="M65.2292 14.828C65.2292 11.2844 68.1192 8.97937 71.2843 8.97937C74.4494 8.97937 77.3737 11.2844 77.3737 14.828C77.3737 18.3716 74.4838 20.6422 71.2843 20.6422C68.0847 20.6422 65.2292 18.3372 65.2292 14.828ZM73.7614 14.828C73.7614 13.2798 72.6604 12.2477 71.2843 12.2477C69.9081 12.2477 68.8072 13.2798 68.8072 14.828C68.8072 16.3762 69.9081 17.3739 71.2843 17.3739C72.6604 17.3395 73.7614 16.3418 73.7614 14.828Z" fill="#0071CE"/>
        <path d="M92.5115 14.828C92.5115 18.4404 89.8624 20.6422 87.0757 20.6422C85.9404 20.6422 84.4267 20.195 83.6354 19.1628V20.4014H80.0918V3.33716H83.6354V10.4243C84.4611 9.3922 85.9404 8.94496 87.0757 8.94496C89.8968 8.97936 92.5115 11.1812 92.5115 14.828ZM88.9335 14.828C88.9335 13.4174 87.7294 12.3165 86.3533 12.3165C84.9771 12.3165 83.773 13.383 83.773 14.828C83.773 16.2729 85.0115 17.3395 86.3533 17.3395C87.7294 17.3395 88.9335 16.2385 88.9335 14.828Z" fill="#0071CE"/>
        <path d="M94.679 5.47023C94.679 4.3005 95.6767 3.40601 96.8808 3.40601C98.0849 3.40601 99.0482 4.3005 99.0482 5.47023C99.0482 6.63995 98.0849 7.53445 96.8808 7.53445C95.6767 7.53445 94.679 6.60555 94.679 5.47023ZM95.1262 9.25463H98.6698V20.4358H95.1262V9.25463Z" fill="#0071CE"/>
        <path d="M101.904 3.33716H105.447V20.4014H101.904V3.33716Z" fill="#0071CE"/>
        <path d="M119.897 15.8601H111.709C112.053 16.9266 112.982 17.5459 114.323 17.5459C115.39 17.5459 116.422 17.133 117.145 16.4794L118.968 18.7844C117.901 19.9541 115.975 20.6422 114.083 20.6422C110.573 20.6422 108.028 18.2683 108.028 14.8624C108.028 11.2156 110.849 8.94495 114.083 8.94495C117.317 8.94495 120 11.1812 120 14.5871C119.966 14.8968 119.966 15.3096 119.897 15.8601ZM116.422 13.7959C116.388 12.6949 115.424 11.9725 114.151 11.9725C113.085 11.9725 112.053 12.4541 111.709 13.7959H116.422Z" fill="#0071CE"/>
    </g>
    <defs>
        <clipPath id="clip0_7852_3156">
            <rect width="120" height="20.6422" fill="white"/>
        </clipPath>
    </defs>
</svg>
